<svg id="Calque_1" data-name="Calque 1" xmlns="http://www.w3.org/2000/svg" viewBox="0 0 331.76 88.89"><defs><style>.cls-1{fill:#fff;}</style></defs><path class="cls-1" d="M125.35,95.82l-2.27-3.57h-.46v3.57h-.8V88.28h1.85a2.27,2.27,0,0,1,1.52.51,1.83,1.83,0,0,1,.63,1.46,1.86,1.86,0,0,1-.49,1.38,2,2,0,0,1-1.33.6l2.31,3.59Zm-1.69-6.73h-1v2.35h1.15a1.23,1.23,0,0,0,.9-.31,1.16,1.16,0,0,0,.33-.89,1.06,1.06,0,0,0-.39-.87A1.49,1.49,0,0,0,123.66,89.09Z" transform="translate(-9.95 -7.39)"/><path class="cls-1" d="M130.64,95.82V88.28h3.83v.81h-3v2.2h3v.84h-3V95h3v.81Z" transform="translate(-9.95 -7.39)"/><path class="cls-1" d="M142.4,95.75a3,3,0,0,1-1,.15A2.32,2.32,0,0,1,139.05,94l.8-.27a2,2,0,0,0,.58,1,1.49,1.49,0,0,0,1,.3q1.47,0,1.47-1.32a1.49,1.49,0,0,0-.89-1.31q-.81-.42-1.62-.81a1.79,1.79,0,0,1-.88-1.57,1.69,1.69,0,0,1,.61-1.35,2.05,2.05,0,0,1,1.4-.5,2.22,2.22,0,0,1,2.06,1.25l-.76.32a1.67,1.67,0,0,0-.55-.59,1.55,1.55,0,0,0-.76-.17,1.28,1.28,0,0,0-.84.27,1,1,0,0,0-.36.78.93.93,0,0,0,.37.74,6.07,6.07,0,0,0,1,.51,4.72,4.72,0,0,1,1.42.87,2.07,2.07,0,0,1,.65,1.56A1.91,1.91,0,0,1,142.4,95.75Z" transform="translate(-9.95 -7.39)"/><path class="cls-1" d="M148.41,95.82V88.28h3.83v.81h-3v2.2h3v.84h-3V95h3v.81Z" transform="translate(-9.95 -7.39)"/><path class="cls-1" d="M162.12,95.82l-.82-2.14h-3l-.83,2.14h-.82l3.14-8.12L163,95.82Zm-2.31-6-1.17,3H161Z" transform="translate(-9.95 -7.39)"/><path class="cls-1" d="M171.11,95.82l-2.27-3.57h-.46v3.57h-.8V88.28h1.85a2.27,2.27,0,0,1,1.52.51,1.83,1.83,0,0,1,.63,1.46,1.86,1.86,0,0,1-.49,1.38,2,2,0,0,1-1.33.6l2.31,3.59Zm-1.69-6.73h-1v2.35h1.15a1.25,1.25,0,0,0,.9-.31,1.16,1.16,0,0,0,.33-.89,1.06,1.06,0,0,0-.39-.87A1.49,1.49,0,0,0,169.42,89.09Z" transform="translate(-9.95 -7.39)"/><path class="cls-1" d="M182.21,95.36a3.64,3.64,0,0,1-2.15.56,3.87,3.87,0,1,1,0-7.74,4.3,4.3,0,0,1,2.71.86v1a5.24,5.24,0,0,0-1.21-.8,4,4,0,0,0-1.51-.29,3.06,3.06,0,1,0,0,6.12,3.35,3.35,0,0,0,1.39-.27,9.52,9.52,0,0,0,1.33-.85v1Z" transform="translate(-9.95 -7.39)"/><path class="cls-1" d="M191.84,95.82V92.1H188.3v3.72h-.8V88.28h.8v3h3.54v-3h.8v7.54Z" transform="translate(-9.95 -7.39)"/><path class="cls-1" d="M204.27,95.82V88.28h.8v7.54Z" transform="translate(-9.95 -7.39)"/><path class="cls-1" d="M211,90.1v5.72h-.8V87.87l5.34,6.28V88.28h.8v8Z" transform="translate(-9.95 -7.39)"/><path class="cls-1" d="M224.34,95.75a3,3,0,0,1-1,.15A2.32,2.32,0,0,1,221,94l.8-.27a2,2,0,0,0,.58,1,1.49,1.49,0,0,0,1,.3q1.47,0,1.47-1.32a1.49,1.49,0,0,0-.89-1.31q-.81-.42-1.62-.81a1.79,1.79,0,0,1-.88-1.57,1.69,1.69,0,0,1,.61-1.35,2.05,2.05,0,0,1,1.4-.5,2.22,2.22,0,0,1,2.06,1.25l-.76.32a1.67,1.67,0,0,0-.55-.59,1.55,1.55,0,0,0-.76-.17,1.28,1.28,0,0,0-.84.27,1,1,0,0,0-.36.78.93.93,0,0,0,.37.74,6.07,6.07,0,0,0,1,.51,4.72,4.72,0,0,1,1.42.87,2.07,2.07,0,0,1,.65,1.56A1.91,1.91,0,0,1,224.34,95.75Z" transform="translate(-9.95 -7.39)"/><path class="cls-1" d="M232.47,89.09v6.73h-.8V89.09h-1.58v-.81h4v.81Z" transform="translate(-9.95 -7.39)"/><path class="cls-1" d="M238.85,95.82V88.28h.8v7.54Z" transform="translate(-9.95 -7.39)"/><path class="cls-1" d="M246.86,89.09v6.73h-.8V89.09h-1.58v-.81h4v.81Z" transform="translate(-9.95 -7.39)"/><path class="cls-1" d="M255.49,95.89a2.36,2.36,0,0,1-1.59-.52,1.87,1.87,0,0,1-.67-1.53V88.28h.8v5.56a1.1,1.1,0,0,0,.43.93,1.6,1.6,0,0,0,1,.31,1.67,1.67,0,0,0,1.05-.33,1.1,1.1,0,0,0,.43-.91V88.28h.8v5.56a1.89,1.89,0,0,1-.67,1.52A2.44,2.44,0,0,1,255.49,95.89Z" transform="translate(-9.95 -7.39)"/><path class="cls-1" d="M264.88,89.09v6.73h-.8V89.09H262.5v-.81h4v.81Z" transform="translate(-9.95 -7.39)"/><path class="cls-1" d="M271.2,95.82V88.28H275v.81h-3v2.2h3v.84h-3V95h3v.81Z" transform="translate(-9.95 -7.39)"/><path class="cls-1" d="M76.58,53.63c-8.52-5.9-28.91-3.7-28.26-17.34-4.2.58-.23,6.91-5.06,11.32-2.79,2.54-5,4.58-8.23,7.81-1,1-2.72,2.78-2.42,3.12.5.59,2.37-.14,3.5-1.74,4.94-7,15-8.6,22.78-6.91a39.63,39.63,0,0,1,13,4.88,5.26,5.26,0,0,0,4,1.94c1.76-.3,2.25-2.21.62-3.08" transform="translate(-9.95 -7.39)"/><path class="cls-1" d="M108.84,58.47c1.48,6.88-7.57,14.41-20.22,16.82S64.52,74.07,63,67.18,70.6,52.77,83.25,50.37,107.35,51.58,108.84,58.47Z" transform="translate(-9.95 -7.39)"/><path class="cls-1" d="M46,65c.92,5.42-6.4,11-16.33,12.41S11,75.61,10,70.2s6.39-11,16.33-12.4S45.1,59.58,46,65Z" transform="translate(-9.95 -7.39)"/><path class="cls-1" d="M58.81,29.57c1,3.69-3.74,8-10.53,9.6s-13.08-.06-14.05-3.75,3.74-8,10.53-9.61S57.84,25.88,58.81,29.57Z" transform="translate(-9.95 -7.39)"/><rect class="cls-1" x="111.9" y="20.44" width="9.18" height="48.25"/><rect class="cls-1" x="194.95" y="20.44" width="9.18" height="48.25"/><path class="cls-1" d="M190.42,23.21A7.58,7.58,0,0,1,195,24.78V7.39h-9.17V24.73A7.57,7.57,0,0,1,190.42,23.21Z" transform="translate(-9.95 -7.39)"/><path class="cls-1" d="M190.42,38.45a7.57,7.57,0,0,1-4.55-1.52V62.18q0,6.54-8.19,6.54H157.23q-8.19,0-8.18-6.54V41.74q0-6.54,8.18-6.54h22.48V27.84H157.23q-17.35,0-17.36,13.9V62.18q0,13.91,17.37,13.91h20.44Q195,76.09,195,62.18V36.88A7.58,7.58,0,0,1,190.42,38.45Z" transform="translate(-9.95 -7.39)"/><path class="cls-1" d="M291.16,79.91a7.58,7.58,0,0,1-4.62-1.57V95.72h9.17V78.39A7.57,7.57,0,0,1,291.16,79.91Z" transform="translate(-9.95 -7.39)"/><path class="cls-1" d="M291.16,64.67a7.57,7.57,0,0,1,4.55,1.52V40.94q0-6.55,8.18-6.55h20.46q8.17,0,8.18,6.55V61.38q0,6.54-8.18,6.54H301.87v7.36h22.48q17.36,0,17.36-13.9V40.93q0-13.89-17.37-13.9H303.91q-17.39,0-17.37,13.9V66.24A7.58,7.58,0,0,1,291.16,64.67Z" transform="translate(-9.95 -7.39)"/><path class="cls-1" d="M195.46,30.84a5.24,5.24,0,1,1-5.23-5.23A5.23,5.23,0,0,1,195.46,30.84Z" transform="translate(-9.95 -7.39)"/><path class="cls-1" d="M286.12,72.27a5.24,5.24,0,1,1,5.24,5.24A5.23,5.23,0,0,1,286.12,72.27Z" transform="translate(-9.95 -7.39)"/><path class="cls-1" d="M227.33,35.28V27.91H260q17.37,0,17.36,13.91V62.27q0,13.91-17.39,13.9H239.55q-17.38,0-17.39-13.9V62.1q0-13.74,17.36-13.74h30.61v7.37H239.52q-8.18,0-8.18,6.37v.17q0,6.54,8.2,6.54H260q8.19,0,8.19-6.54V41.82q0-6.54-8.18-6.54Z" transform="translate(-9.95 -7.39)"/></svg>